<svg width="42" height="42" viewBox="0 0 42 42" fill="none" xmlns="http://www.w3.org/2000/svg">
<path id="Vector" d="M27.4021 0.166748H14.6187C2.94374 0.166748 0.166656 2.94383 0.166656 14.598V27.3813C0.166656 39.0543 2.92291 41.8334 14.5979 41.8334H27.3812C39.0542 41.8334 41.8333 39.0772 41.8333 27.4022V14.6188C41.8333 2.94383 39.0771 0.166748 27.4021 0.166748ZM33.8042 29.8959H30.7646C29.6146 29.8959 29.2687 28.9647 27.2062 26.9022C25.4062 25.1667 24.6458 24.9501 24.1896 24.9501C23.5604 24.9501 23.3875 25.123 23.3875 25.9918V28.7251C23.3875 29.4647 23.1479 29.898 21.2167 29.898C19.3424 29.772 17.5248 29.2026 15.9137 28.2366C14.3026 27.2706 12.9441 25.9357 11.95 24.3418C9.58992 21.4042 7.94779 17.9566 7.15416 14.273C7.15416 13.8167 7.32707 13.4042 8.19582 13.4042H11.2333C12.0146 13.4042 12.2958 13.7522 12.6021 14.5542C14.0771 18.8959 16.5937 22.6709 17.6146 22.6709C18.0062 22.6709 18.1771 22.498 18.1771 21.5209V17.0501C18.0479 15.0105 16.9646 14.8376 16.9646 14.1001C16.9785 13.9056 17.0676 13.7241 17.2131 13.5942C17.3586 13.4643 17.5489 13.3962 17.7437 13.4042H22.5187C23.1708 13.4042 23.3875 13.7292 23.3875 14.5105V20.5438C23.3875 21.1959 23.6687 21.4126 23.8646 21.4126C24.2562 21.4126 24.5583 21.1959 25.275 20.4792C26.8143 18.6021 28.0719 16.5107 29.0083 14.2709C29.104 14.0019 29.2851 13.7715 29.524 13.6151C29.7629 13.4586 30.0464 13.3845 30.3312 13.4042H33.3708C34.2812 13.4042 34.475 13.8605 34.2812 14.5105C33.176 16.9864 31.8085 19.3366 30.2021 21.5209C29.875 22.0209 29.7437 22.2813 30.2021 22.8668C30.5042 23.323 31.5687 24.2126 32.2854 25.0584C33.3269 26.0973 34.1917 27.2992 34.8458 28.6168C35.1062 29.4626 34.6708 29.8959 33.8042 29.8959Z" fill="white"/>
</svg>
