<svg width="42" height="42" viewBox="0 0 42 42" fill="none" xmlns="http://www.w3.org/2000/svg">
<path id="Vector" fill-rule="evenodd" clip-rule="evenodd" d="M21 0.166626C9.49375 0.166626 0.166664 9.49371 0.166664 21C0.166664 24.9375 1.26041 28.625 3.1625 31.7666L1.30416 38.0833C1.19747 38.446 1.19044 38.8307 1.28384 39.197C1.37724 39.5633 1.5676 39.8977 1.83491 40.165C2.10223 40.4324 2.43663 40.6227 2.80295 40.7161C3.16927 40.8095 3.55399 40.8025 3.91666 40.6958L10.2333 38.8375C13.4806 40.8022 17.2046 41.8384 21 41.8333C32.5062 41.8333 41.8333 32.5062 41.8333 21C41.8333 9.49371 32.5062 0.166626 21 0.166626ZM16.2875 25.7145C20.5021 29.927 24.525 30.4833 25.9458 30.5354C28.1062 30.6145 30.2104 28.9645 31.0292 27.05C31.1325 26.8118 31.17 26.5502 31.1378 26.2926C31.1056 26.035 31.0047 25.7907 30.8458 25.5854C29.7042 24.127 28.1604 23.0791 26.6521 22.0375C26.3372 21.8197 25.9502 21.7324 25.5722 21.7937C25.1943 21.8551 24.8548 22.0604 24.625 22.3666L23.375 24.2729C23.3093 24.3754 23.2069 24.4488 23.0887 24.4783C22.9706 24.5077 22.8457 24.4909 22.7396 24.4312C21.8917 23.9458 20.6562 23.1208 19.7687 22.2333C18.8812 21.3458 18.1062 20.1666 17.6708 19.3729C17.6168 19.272 17.6012 19.155 17.6269 19.0436C17.6526 18.9321 17.7178 18.8337 17.8104 18.7666L19.7354 17.3375C20.0101 17.0986 20.1874 16.767 20.2335 16.4059C20.2796 16.0448 20.1913 15.6793 19.9854 15.3791C19.0521 14.0125 17.9646 12.275 16.3875 11.1229C16.184 10.9754 15.9455 10.8834 15.6957 10.856C15.4458 10.8286 15.1932 10.8667 14.9625 10.9666C13.0458 11.7875 11.3875 13.8916 11.4667 16.0562C11.5187 17.477 12.075 21.5 16.2875 25.7145Z" fill="white"/>
</svg>
