<svg width="27" height="26" viewBox="0 0 27 26" fill="none" xmlns="http://www.w3.org/2000/svg">
<g id="Group">
<path id="Vector" fill-rule="evenodd" clip-rule="evenodd" d="M13.4291 0.0241699C6.26253 0.0241699 0.453247 5.83345 0.453247 13C0.453247 15.4524 1.13448 17.7492 2.31917 19.7059L1.16173 23.6402C1.09527 23.8661 1.0909 24.1057 1.14907 24.3339C1.20724 24.562 1.3258 24.7703 1.4923 24.9368C1.65879 25.1033 1.86707 25.2218 2.09523 25.28C2.32339 25.3382 2.56301 25.3338 2.7889 25.2674L6.72317 24.1099C8.74568 25.3336 11.0652 25.979 13.4291 25.9758C20.5956 25.9758 26.4049 20.1666 26.4049 13C26.4049 5.83345 20.5956 0.0241699 13.4291 0.0241699ZM10.4939 15.9364C13.119 18.5601 15.6246 18.9066 16.5095 18.939C17.8551 18.9883 19.1657 17.9607 19.6756 16.7682C19.74 16.6198 19.7634 16.4569 19.7433 16.2965C19.7232 16.136 19.6604 15.9839 19.5615 15.856C18.8504 14.9477 17.8889 14.295 16.9494 13.6462C16.7533 13.5106 16.5122 13.4562 16.2769 13.4944C16.0415 13.5326 15.83 13.6605 15.6869 13.8512L14.9083 15.0385C14.8674 15.1023 14.8036 15.1481 14.73 15.1664C14.6565 15.1848 14.5787 15.1743 14.5126 15.1371C13.9844 14.8348 13.215 14.3209 12.6622 13.7682C12.1094 13.2154 11.6267 12.481 11.3555 11.9866C11.3219 11.9238 11.3122 11.8509 11.3282 11.7815C11.3442 11.7121 11.3848 11.6508 11.4425 11.609L12.6414 10.7189C12.8126 10.5701 12.923 10.3636 12.9517 10.1387C12.9804 9.91374 12.9254 9.68611 12.7972 9.49912C12.2158 8.64791 11.5385 7.56572 10.5562 6.84816C10.4295 6.7563 10.281 6.69902 10.1253 6.68195C9.96973 6.66489 9.81234 6.68863 9.66868 6.75084C8.47491 7.26209 7.44203 8.57265 7.49134 9.92084C7.52378 10.8058 7.87023 13.3114 10.4939 15.9364Z" fill="#1FCC42"/>
</g>
</svg>
