<svg width="42" height="42" viewBox="0 0 42 42" fill="none" xmlns="http://www.w3.org/2000/svg">
<path id="Vector" d="M21 0.166748C9.50001 0.166748 0.166672 9.50008 0.166672 21.0001C0.166672 32.5001 9.50001 41.8334 21 41.8334C32.5 41.8334 41.8333 32.5001 41.8333 21.0001C41.8333 9.50008 32.5 0.166748 21 0.166748ZM30.6667 14.3334C30.3542 17.6251 29 25.6251 28.3125 29.3126C28.0208 30.8751 27.4375 31.3959 26.8958 31.4584C25.6875 31.5626 24.7708 30.6668 23.6042 29.8959C21.7708 28.6876 20.7292 27.9376 18.9583 26.7709C16.8958 25.4168 18.2292 24.6668 19.4167 23.4584C19.7292 23.1459 25.0625 18.2917 25.1667 17.8542C25.1811 17.788 25.1792 17.7192 25.1611 17.6538C25.1429 17.5885 25.1091 17.5286 25.0625 17.4793C24.9375 17.3751 24.7708 17.4167 24.625 17.4376C24.4375 17.4792 21.5208 19.4167 15.8333 23.2501C15 23.8126 14.25 24.1042 13.5833 24.0834C12.8333 24.0626 11.4167 23.6667 10.3542 23.3126C9.04167 22.8959 8.02084 22.6667 8.10417 21.9376C8.14584 21.5626 8.66667 21.1876 9.64584 20.7917C15.7292 18.1459 19.7708 16.3959 21.7917 15.5626C27.5833 13.1459 28.7708 12.7292 29.5625 12.7292C29.7292 12.7292 30.125 12.7709 30.375 12.9792C30.5833 13.1459 30.6458 13.3751 30.6667 13.5417C30.6458 13.6667 30.6875 14.0417 30.6667 14.3334Z" fill="white"/>
</svg>
